<svg xmlns="http://www.w3.org/2000/svg" version="1.1" xmlns:xlink="http://www.w3.org/1999/xlink" xmlns:svgjs="http://svgjs.dev/svgjs" width="100%" height="100%" viewBox="0 0 1000 600"><rect width="1000" height="600" x="0" y="0" fill="#030033"/><g><rect width="333.3333333333333" height="333.3333333333333" rx="13.333333333333334" ry="13.333333333333334" y="151.15190139556177" fill="#0be0ed" transform="matrix(0.9695207697022865,0,0,0.9695207697022867,-0.23954681112943543,-8.131701384291858)" x="137.03613281249997"/><path d="M150.1423943086557 307.58929771349864Q143.4625002186443 307.58929771349864 140.1335761011799 304.4808321468597Q136.80465198371547 301.3944124353033 136.80465198371547 295.83885695450175L136.80465198371547 295.83885695450175Q136.80465198371547 290.2833014737002 141.16973129005956 286.55755196474996Q145.53481059640362 282.8097566007172 152.03833784575463 282.8097566007172L152.03833784575463 282.8097566007172Q157.92458115279436 282.8097566007172 161.5621472414144 285.67571776144814Q165.221759185117 288.5416789221791 165.221759185117 293.7665465767424L165.221759185117 293.7665465767424Q165.221759185117 300.11575284051565 161.09918428468094 303.8415023494659Q156.95456352916236 307.58929771349864 150.1423943086557 307.58929771349864L150.1423943086557 307.58929771349864ZM148.86373471386804 392.8185734626208Q138.5462745352366 392.8185734626208 133.87255325773688 385.5213954302981Q129.17678612515462 378.22421739797545 129.17678612515462 366.14308881274036L129.17678612515462 366.14308881274036Q129.17678612515462 359.00023176599547 131.00659209700592 347.8229832391448Q132.83639806885722 336.62368885721156 135.70235922958818 326.9455584759739L135.70235922958818 326.9455584759739Q137.11329395487112 321.8750118069884 139.49424630378607 319.9570224148069Q141.87519865270102 318.061078877708 147.12211216234692 318.061078877708L147.12211216234692 318.061078877708Q155.21294097764124 318.061078877708 155.21294097764124 323.46231337293165L155.21294097764124 323.46231337293165Q155.21294097764124 327.43056728778987 152.19265883133247 341.87060236685744L152.19265883133247 341.87060236685744Q148.40077175713458 359.33091959223367 148.40077175713458 365.5258048704291L148.40077175713458 365.5258048704291Q148.40077175713458 370.287709568259 149.65738549683968 372.8229829027518Q150.93604509162734 375.35825623724446 153.9563272379361 375.35825623724446L153.9563272379361 375.35825623724446Q156.80024254358452 375.35825623724446 161.09918428468094 371.39000232238624Q165.37608017069485 367.421748407528 172.51893721743969 358.8459107804177L172.51893721743969 358.8459107804177Q174.41488075453861 356.6192794170806 176.7958331034536 356.6192794170806L176.7958331034536 356.6192794170806Q178.86814348121288 356.6192794170806 180.05861965567036 358.537268809262Q181.24909583012783 360.433212346361 181.24909583012783 363.76213646382536L181.24909583012783 363.76213646382536Q181.24909583012783 370.1113427275986 178.22881368381906 373.61663368572334L178.22881368381906 373.61663368572334Q162.5101190099639 392.8185734626208 148.86373471386804 392.8185734626208L148.86373471386804 392.8185734626208ZM179.66179426418452 392.8185734626208Q173.62122997156698 392.8185734626208 171.1741400574044 386.4693671988476Q168.70500428815924 380.12016093507435 168.70500428815924 366.14308881274036L168.70500428815924 366.14308881274036Q168.70500428815924 345.50816845547746 174.591247595199 326.9455584759739L174.591247595199 326.9455584759739Q176.00218232048192 322.3379747637219 179.26496887269872 320.1995268207149Q182.52775542491548 318.061078877708 188.39195287687267 318.061078877708L188.39195287687267 318.061078877708Q191.56655600875928 318.061078877708 192.8452156035469 318.85472966067965Q194.10182934325204 319.6483804436512 194.10182934325204 321.8750118069884L194.10182934325204 321.8750118069884Q194.10182934325204 324.4102851414811 191.7208769943371 333.2947647397471L191.7208769943371 333.2947647397471Q190.13357542839378 339.64397100352033 189.1856036598443 344.4058757013502Q188.23763189129485 349.1677803991801 187.59830209390103 356.1563164603471L187.59830209390103 356.1563164603471Q192.8452156035469 342.5099321642512 199.34874285289794 333.9340945371409Q205.85227010224895 325.35825691003066 212.11329294569197 321.698644966328Q218.39636164421754 318.061078877708 223.6212292987809 318.061078877708L223.6212292987809 318.061078877708Q233.93868947741228 318.061078877708 233.93868947741228 328.3785390563393L233.93868947741228 328.3785390563393Q233.93868947741228 330.4288035790161 232.52775475212937 338.3653114087327L232.52775475212937 338.3653114087327Q231.2490951573417 344.7145176725058 231.2490951573417 346.3018192384491L231.2490951573417 346.3018192384491Q231.2490951573417 351.8573747192507 235.21734907219997 351.8573747192507L235.21734907219997 351.8573747192507Q239.6706117988742 351.8573747192507 246.63710200495868 344.8908845131662L246.63710200495868 344.8908845131662Q248.709412382718 342.8185741354069 250.9360437460551 342.8185741354069L250.9360437460551 342.8185741354069Q252.9863082687319 342.8185741354069 254.17678444318935 344.6483801072582Q255.36726061764682 346.47818607910955 255.36726061764682 349.4764223703357L255.36726061764682 349.4764223703357Q255.36726061764682 355.36266567737545 252.19265748576024 358.6915897948399L252.19265748576024 358.6915897948399Q247.76144061416855 363.299173507092 241.80905974188116 366.53991420422614Q235.85667886959382 369.802700756443 229.17678477958242 369.802700756443L229.17678477958242 369.802700756443Q220.77731399313245 369.802700756443 216.4122346867884 365.5258048704291Q212.0471553804443 361.2268631293327 212.0471553804443 353.92968509701L212.0471553804443 353.92968509701Q212.0471553804443 351.548732748095 212.51011833717777 349.1677803991801L212.51011833717777 349.1677803991801Q212.84080616341598 345.99317726729345 212.84080616341598 344.8908845131662L212.84080616341598 344.8908845131662Q212.84080616341598 342.3335653235909 211.09918361189486 342.3335653235909L211.09918361189486 342.3335653235909Q208.7182312629799 342.3335653235909 204.8161149133693 347.668662253567Q200.93604441884125 352.98171332846056 197.1221114895608 361.7118719411487Q193.30817856028037 370.4420305538368 190.92722621136542 380.12016093507435L190.92722621136542 380.12016093507435Q189.1856036598443 387.5716599529749 186.89283473125957 390.1951167077978Q184.57801994759225 392.8185734626208 179.66179426418452 392.8185734626208L179.66179426418452 392.8185734626208ZM325.0542085335742 343.3035829472229Q327.1265189113335 343.3035829472229 328.22881166546074 345.3538474698997Q329.3531502746706 347.426157847659 329.3531502746706 350.60076097954556L329.3531502746706 350.60076097954556Q329.3531502746706 354.5690148944038 328.22881166546074 356.7074628374108Q327.1265189113335 358.8459107804177 324.7455665624185 359.63956156338935L324.7455665624185 359.63956156338935Q315.2217571667587 362.9684856808538 303.7799583789174 363.4534944926698L303.7799583789174 363.4534944926698Q300.60535524703084 376.6369158320321 291.80905906909504 384.72774464732646Q282.9907170360767 392.8185734626208 272.3646148862897 392.8185734626208L272.3646148862897 392.8185734626208Q256.3372782412789 392.8185734626208 249.01805435387365 380.60516974689045Q241.72087632155097 368.36972017607746 241.72087632155097 345.1995264843219L241.72087632155097 345.1995264843219Q241.72087632155097 324.7189271126368 246.81346884561907 300.66689921757927Q251.8840155146046 276.63691717760435 261.65032931617236 259.72774632929173Q271.41664311774025 242.81857548097906 284.90870642825826 242.81857548097906L284.90870642825826 242.81857548097906Q292.20588446058093 242.81857548097906 296.6371013321726 249.07959832442208Q301.09036405884683 255.36266702294765 301.09036405884683 265.3494393753409L301.09036405884683 265.3494393753409Q301.09036405884683 278.37853972912546 296.17413837543916 291.2312732422497Q291.2579126920315 304.0840067553739 279.81611390419016 318.21539986328577L279.81611390419016 318.21539986328577Q290.4642619090598 319.00905064625744 297.1221101439886 327.0337418963041Q303.7799583789174 335.0363872912682 305.05861797370505 346.7868280502651L305.05861797370505 346.7868280502651Q312.5101169916056 346.3018192384491 322.8275771702371 343.61222491837856L322.8275771702371 343.61222491837856Q323.79759479386905 343.3035829472229 325.0542085335742 343.3035829472229L325.0542085335742 343.3035829472229ZM281.2490944845556 258.53727015483423Q278.07449135266904 258.53727015483423 274.3487418437188 267.97289613016386Q270.6229923347686 277.430567960576 267.4483892028819 293.61222559116464Q264.27378607099536 309.7938832217532 262.686484505052 329.0178688537332L262.686484505052 329.0178688537332Q273.15826566926137 309.7938832217532 279.4192885127044 295.11134373677777Q285.7023572112299 280.42880425180226 285.7023572112299 269.0090513190435L285.7023572112299 269.0090513190435Q285.7023572112299 263.93850465005795 284.5118810367725 261.2268644749048Q283.3214048623149 258.53727015483423 281.2490944845556 258.53727015483423L281.2490944845556 258.53727015483423ZM273.00394468368347 375.99758603463835Q277.92017036709115 375.99758603463835 281.7341032963716 371.8750111342022Q285.5259903705695 367.7303903786837 286.80464996535716 359.97024938962755L286.80464996535716 359.97024938962755Q281.8884242819495 356.6192794170806 279.2649675271265 351.24009077693944Q276.6415107723035 345.83885628171566 276.6415107723035 339.7982919890981L276.6415107723035 339.7982919890981Q276.6415107723035 337.571660625761 277.2808405696974 333.7797735515631L277.2808405696974 333.7797735515631L276.7958317578814 333.7797735515631Q270.2923045085304 333.7797735515631 265.92722520218626 340.1951173805839Q261.56214589584226 346.63250706468733 261.56214589584226 357.41293020005224L261.56214589584226 357.41293020005224Q261.56214589584226 366.47377663897856 264.9792534336368 371.23568133680845Q268.39636097143136 375.99758603463835 273.00394468368347 375.99758603463835L273.00394468368347 375.99758603463835ZM400.1423909447252 343.3035829472229Q402.1926554674019 343.3035829472229 403.31699407661176 345.3538474698997Q404.419286830739 347.426157847659 404.419286830739 350.60076097954556L404.419286830739 350.60076097954556Q404.419286830739 354.5690148944038 403.31699407661176 356.7074628374108Q402.1926554674019 358.8459107804177 399.811703118487 359.63956156338935L399.811703118487 359.63956156338935Q390.2878937228271 362.9684856808538 378.8681407900684 363.4534944926698L378.8681407900684 363.4534944926698Q375.69353765818187 376.6369158320321 366.87519562516354 384.72774464732646Q358.07889944722774 392.8185734626208 347.4307514423581 392.8185734626208L347.4307514423581 392.8185734626208Q331.4034147973473 392.8185734626208 324.1062367650246 380.60516974689045Q316.80905873270206 368.36972017607746 316.80905873270206 345.1995264843219L316.80905873270206 345.1995264843219Q316.80905873270206 324.7189271126368 321.8796054016875 300.66689921757927Q326.9721979257556 276.63691717760435 336.71646587224086 259.72774632929173Q346.48277967380875 242.81857548097906 359.97484298432664 242.81857548097906L359.97484298432664 242.81857548097906Q367.2720210166493 242.81857548097906 371.72528374332364 249.07959832442208Q376.17854646999785 255.36266702294765 376.17854646999785 265.3494393753409L376.17854646999785 265.3494393753409Q376.17854646999785 278.37853972912546 371.24027493150766 291.2312732422497Q366.32404924809987 304.0840067553739 354.9042963153412 318.21539986328577L354.9042963153412 318.21539986328577Q365.5303984651282 319.00905064625744 372.21029255513963 327.0337418963041Q378.8681407900684 335.0363872912682 380.1468003848561 346.7868280502651L380.1468003848561 346.7868280502651Q387.59829940275654 346.3018192384491 397.915759581388 343.61222491837856L397.915759581388 343.61222491837856Q398.86373134993744 343.3035829472229 400.1423909447252 343.3035829472229L400.1423909447252 343.3035829472229ZM356.3372768957066 258.53727015483423Q353.16267376382007 258.53727015483423 349.4148783997873 267.97289613016386Q345.68912889083697 277.430567960576 342.5145257589504 293.61222559116464Q339.33992262706386 309.7938832217532 337.7526210611205 329.0178688537332L337.7526210611205 329.0178688537332Q348.22440222532975 309.7938832217532 354.5074709238553 295.11134373677777Q360.7684937672983 280.42880425180226 360.7684937672983 269.0090513190435L360.7684937672983 269.0090513190435Q360.7684937672983 263.93850465005795 359.57801759284087 261.2268644749048Q358.3875414183834 258.53727015483423 356.3372768957066 258.53727015483423L356.3372768957066 258.53727015483423ZM348.07008123975197 375.99758603463835Q352.98630692315965 375.99758603463835 356.8002398524401 371.8750111342022Q360.6141727817205 367.7303903786837 361.8928323765082 359.97024938962755L361.8928323765082 359.97024938962755Q356.954560838018 356.6192794170806 354.3531499382775 351.24009077693944Q351.72969318345463 345.83885628171566 351.72969318345463 339.7982919890981L351.72969318345463 339.7982919890981Q351.72969318345463 337.571660625761 352.3690229808484 333.7797735515631L352.3690229808484 333.7797735515631L351.8840141690324 333.7797735515631Q345.3804869196814 333.7797735515631 341.0154076133373 340.1951173805839Q336.6503283069932 346.63250706468733 336.6503283069932 357.41293020005224L336.6503283069932 357.41293020005224Q336.6503283069932 366.47377663897856 340.06743584478784 371.23568133680845Q343.46249752749986 375.99758603463835 348.07008123975197 375.99758603463835L348.07008123975197 375.99758603463835ZM410.30553013777876 392.8185734626208Q400.4510329158808 392.8185734626208 394.58683546392353 385.6757164158759Q388.7005921568839 378.53285936913113 388.7005921568839 366.936739595712L388.7005921568839 366.936739595712Q388.7005921568839 354.2383270681656 394.58683546392353 342.9067575557371Q400.4510329158808 331.553142188226 410.21734671744866 324.6527895473891Q419.9836605190163 317.7303910514698 430.94045049504166 317.7303910514698L430.94045049504166 317.7303910514698Q434.4236955980839 317.7303910514698 435.61417177254134 319.09723406658765Q436.8046479469988 320.4420312266229 437.59829872997045 323.9252763296651L437.59829872997045 323.9252763296651Q440.9272228474349 323.28594653227134 444.58683479113745 323.28594653227134L444.58683479113745 323.28594653227134Q452.3690216352761 323.28594653227134 452.3690216352761 328.8415020130729L452.3690216352761 328.8415020130729Q452.3690216352761 332.19247198561976 449.9880692863612 344.7145176725058L449.9880692863612 344.7145176725058Q446.32845734265857 362.9684856808538 446.32845734265857 370.1113427275986L446.32845734265857 370.1113427275986Q446.32845734265857 372.4922950765136 447.5189335171161 373.925275656879Q448.70940969157357 375.35825623724446 450.6053532286726 375.35825623724446L450.6053532286726 375.35825623724446Q453.62563537498124 375.35825623724446 457.92457711607767 371.47818574271645Q462.2014730020916 367.5760693931058 469.49865103441425 358.8459107804177L469.49865103441425 358.8459107804177Q471.4166404265958 356.6192794170806 473.7975927755107 356.6192794170806L473.7975927755107 356.6192794170806Q475.8478572981875 356.6192794170806 477.0383334726449 358.537268809262Q478.2288096471025 360.433212346361 478.2288096471025 363.76213646382536L478.2288096471025 363.76213646382536Q478.2288096471025 370.1113427275986 475.2085275007936 373.61663368572334L475.2085275007936 373.61663368572334Q468.7050002514426 381.7074625010177 461.40782221912 387.26301798181925Q454.11064418679734 392.8185734626208 447.27642911120813 392.8185734626208L447.27642911120813 392.8185734626208Q442.0515614566448 392.8185734626208 437.68648215030066 389.24714493924836Q433.32140284395655 385.6757164158759 431.09477148061956 379.4808311376806L431.09477148061956 379.4808311376806Q422.8275758246648 392.8185734626208 410.30553013777876 392.8185734626208L410.30553013777876 392.8185734626208ZM416.0154066041582 376.79123681761Q419.49865170720034 376.79123681761 422.6732548390869 372.6686619171739Q425.84785797097356 368.52404116165536 427.280838551339 361.7118719411487L427.280838551339 361.7118719411487L433.14503600329624 332.50111395677544Q426.48718776836745 332.6554349423532 420.8434488672357 337.5055230605133Q415.22175582118655 342.3335653235909 411.8928317037221 350.27007315330735Q408.5418617311751 358.2065809830239 408.5418617311751 367.11310643637233L408.5418617311751 367.11310643637233Q408.5418617311751 372.0293321197801 410.52598868860423 374.410284468695Q412.51011564603334 376.79123681761 416.0154066041582 376.79123681761L416.0154066041582 376.79123681761Z " fill="#030033" transform="matrix(0.9695207697022865,0,0,0.9695207697022867,-0.23954681112943543,-8.131701384291858)"/><path d="M574.6684105440071 307.58929771349864Q567.9885164539957 307.58929771349864 564.6595923365313 304.4808321468597Q561.330668219067 301.3944124353033 561.330668219067 295.83885695450175L561.330668219067 295.83885695450175Q561.330668219067 290.2833014737002 565.695747525411 286.55755196474996Q570.060826831755 282.8097566007172 576.564354081106 282.8097566007172L576.564354081106 282.8097566007172Q582.4505973881459 282.8097566007172 586.0881634767658 285.67571776144814Q589.7477754204684 288.5416789221791 589.7477754204684 293.7665465767424L589.7477754204684 293.7665465767424Q589.7477754204684 300.11575284051565 585.6252005200323 303.8415023494659Q581.4805797645138 307.58929771349864 574.6684105440071 307.58929771349864L574.6684105440071 307.58929771349864ZM573.3897509492194 392.8185734626208Q563.072290770588 392.8185734626208 558.3985694930883 385.5213954302981Q553.7028023605061 378.22421739797545 553.7028023605061 366.14308881274036L553.7028023605061 366.14308881274036Q553.7028023605061 359.00023176599547 555.5326083323574 347.8229832391448Q557.3624143042086 336.62368885721156 560.2283754649396 326.9455584759739L560.2283754649396 326.9455584759739Q561.6393101902225 321.8750118069884 564.0202625391374 319.9570224148069Q566.4012148880524 318.061078877708 571.6481283976983 318.061078877708L571.6481283976983 318.061078877708Q579.7389572129927 318.061078877708 579.7389572129927 323.46231337293165L579.7389572129927 323.46231337293165Q579.7389572129927 327.43056728778987 576.7186750666839 341.87060236685744L576.7186750666839 341.87060236685744Q572.926787992486 359.33091959223367 572.926787992486 365.5258048704291L572.926787992486 365.5258048704291Q572.926787992486 370.287709568259 574.1834017321911 372.8229829027518Q575.4620613269788 375.35825623724446 578.4823434732875 375.35825623724446L578.4823434732875 375.35825623724446Q581.326258778936 375.35825623724446 585.6252005200323 371.39000232238624Q589.9020964060463 367.421748407528 597.0449534527911 358.8459107804177L597.0449534527911 358.8459107804177Q598.9408969898901 356.6192794170806 601.321849338805 356.6192794170806L601.321849338805 356.6192794170806Q603.3941597165643 356.6192794170806 604.5846358910218 358.537268809262Q605.7751120654792 360.433212346361 605.7751120654792 363.76213646382536L605.7751120654792 363.76213646382536Q605.7751120654792 370.1113427275986 602.7548299191704 373.61663368572334L602.7548299191704 373.61663368572334Q587.0361352453153 392.8185734626208 573.3897509492194 392.8185734626208L573.3897509492194 392.8185734626208ZM604.1878104995359 392.8185734626208Q598.1472462069183 392.8185734626208 595.7001562927559 386.4693671988476Q593.2310205235107 380.12016093507435 593.2310205235107 366.14308881274036L593.2310205235107 366.14308881274036Q593.2310205235107 345.50816845547746 599.1172638305504 326.9455584759739L599.1172638305504 326.9455584759739Q600.5281985558333 322.3379747637219 603.7909851080501 320.1995268207149Q607.0537716602669 318.061078877708 612.9179691122241 318.061078877708L612.9179691122241 318.061078877708Q616.0925722441107 318.061078877708 617.3712318388983 318.85472966067965Q618.6278455786035 319.6483804436512 618.6278455786035 321.8750118069884L618.6278455786035 321.8750118069884Q618.6278455786035 324.4102851414811 616.2468932296885 333.2947647397471L616.2468932296885 333.2947647397471Q614.6595916637452 339.64397100352033 613.7116198951957 344.4058757013502Q612.7636481266462 349.1677803991801 612.1243183292524 356.1563164603471L612.1243183292524 356.1563164603471Q617.3712318388983 342.5099321642512 623.8747590882493 333.9340945371409Q630.3782863376003 325.35825691003066 636.6393091810434 321.698644966328Q642.9223778795689 318.061078877708 648.1472455341324 318.061078877708L648.1472455341324 318.061078877708Q658.4647057127637 318.061078877708 658.4647057127637 328.3785390563393L658.4647057127637 328.3785390563393Q658.4647057127637 330.4288035790161 657.0537709874808 338.3653114087327L657.0537709874808 338.3653114087327Q655.7751113926931 344.7145176725058 655.7751113926931 346.3018192384491L655.7751113926931 346.3018192384491Q655.7751113926931 351.8573747192507 659.7433653075514 351.8573747192507L659.7433653075514 351.8573747192507Q664.1966280342257 351.8573747192507 671.16311824031 344.8908845131662L671.16311824031 344.8908845131662Q673.2354286180695 342.8185741354069 675.4620599814066 342.8185741354069L675.4620599814066 342.8185741354069Q677.5123245040833 342.8185741354069 678.7028006785408 344.6483801072582Q679.8932768529983 346.47818607910955 679.8932768529983 349.4764223703357L679.8932768529983 349.4764223703357Q679.8932768529983 355.36266567737545 676.7186737211116 358.6915897948399L676.7186737211116 358.6915897948399Q672.2874568495199 363.299173507092 666.3350759772326 366.53991420422614Q660.3826951049452 369.802700756443 653.7028010149338 369.802700756443L653.7028010149338 369.802700756443Q645.3033302284839 369.802700756443 640.9382509221398 365.5258048704291Q636.5731716157958 361.2268631293327 636.5731716157958 353.92968509701L636.5731716157958 353.92968509701Q636.5731716157958 351.548732748095 637.0361345725292 349.1677803991801L637.0361345725292 349.1677803991801Q637.3668223987673 345.99317726729345 637.3668223987673 344.8908845131662L637.3668223987673 344.8908845131662Q637.3668223987673 342.3335653235909 635.6251998472463 342.3335653235909L635.6251998472463 342.3335653235909Q633.2442474983313 342.3335653235909 629.3421311487207 347.668662253567Q625.4620606541927 352.98171332846056 621.6481277249122 361.7118719411487Q617.8341947956318 370.4420305538368 615.4532424467169 380.12016093507435L615.4532424467169 380.12016093507435Q613.7116198951957 387.5716599529749 611.418850966611 390.1951167077978Q609.1040361829437 392.8185734626208 604.1878104995359 392.8185734626208L604.1878104995359 392.8185734626208ZM749.5802247689255 343.3035829472229Q751.6525351466848 343.3035829472229 752.7548279008122 345.3538474698997Q753.8791665100221 347.426157847659 753.8791665100221 350.60076097954556L753.8791665100221 350.60076097954556Q753.8791665100221 354.5690148944038 752.7548279008122 356.7074628374108Q751.6525351466848 358.8459107804177 749.27158279777 359.63956156338935L749.27158279777 359.63956156338935Q739.7477734021102 362.9684856808538 728.3059746142688 363.4534944926698L728.3059746142688 363.4534944926698Q725.1313714823823 376.6369158320321 716.3350753044465 384.72774464732646Q707.5167332714282 392.8185734626208 696.890631121641 392.8185734626208L696.890631121641 392.8185734626208Q680.8632944766302 392.8185734626208 673.544070589225 380.60516974689045Q666.2468925569024 368.36972017607746 666.2468925569024 345.1995264843219L666.2468925569024 345.1995264843219Q666.2468925569024 324.7189271126368 671.3394850809705 300.66689921757927Q676.410031749956 276.63691717760435 686.1763455515238 259.72774632929173Q695.9426593530916 242.81857548097906 709.4347226636096 242.81857548097906L709.4347226636096 242.81857548097906Q716.7319006959323 242.81857548097906 721.1631175675241 249.07959832442208Q725.6163802941983 255.36266702294765 725.6163802941983 265.3494393753409L725.6163802941983 265.3494393753409Q725.6163802941983 278.37853972912546 720.7001546107906 291.2312732422497Q715.7839289273828 304.0840067553739 704.3421301395415 318.21539986328577L704.3421301395415 318.21539986328577Q714.9902781444111 319.00905064625744 721.64812637934 327.0337418963041Q728.3059746142688 335.0363872912682 729.5846342090565 346.7868280502651L729.5846342090565 346.7868280502651Q737.036133226957 346.3018192384491 747.3535934055884 343.61222491837856L747.3535934055884 343.61222491837856Q748.3236110292205 343.3035829472229 749.5802247689255 343.3035829472229L749.5802247689255 343.3035829472229ZM705.775110719907 258.53727015483423Q702.6005075880205 258.53727015483423 698.8747580790703 267.97289613016386Q695.14900857012 277.430567960576 691.9744054382334 293.61222559116464Q688.7998023063467 309.7938832217532 687.2125007404035 329.0178688537332L687.2125007404035 329.0178688537332Q697.6842819046127 309.7938832217532 703.9453047480557 295.11134373677777Q710.2283734465813 280.42880425180226 710.2283734465813 269.0090513190435L710.2283734465813 269.0090513190435Q710.2283734465813 263.93850465005795 709.0378972721238 261.2268644749048Q707.8474210976664 258.53727015483423 705.775110719907 258.53727015483423L705.775110719907 258.53727015483423ZM697.5299609190349 375.99758603463835Q702.4461866024426 375.99758603463835 706.260119531723 371.8750111342022Q710.052006605921 367.7303903786837 711.3306662007085 359.97024938962755L711.3306662007085 359.97024938962755Q706.4144405173008 356.6192794170806 703.7909837624779 351.24009077693944Q701.1675270076549 345.83885628171566 701.1675270076549 339.7982919890981L701.1675270076549 339.7982919890981Q701.1675270076549 337.571660625761 701.8068568050488 333.7797735515631L701.8068568050488 333.7797735515631L701.3218479932327 333.7797735515631Q694.8183207438817 333.7797735515631 690.4532414375377 340.1951173805839Q686.0881621311936 346.63250706468733 686.0881621311936 357.41293020005224L686.0881621311936 357.41293020005224Q686.0881621311936 366.47377663897856 689.5052696689883 371.23568133680845Q692.9223772067828 375.99758603463835 697.5299609190349 375.99758603463835L697.5299609190349 375.99758603463835ZM824.6684071800767 343.3035829472229Q826.7186717027533 343.3035829472229 827.8430103119631 345.3538474698997Q828.9453030660904 347.426157847659 828.9453030660904 350.60076097954556L828.9453030660904 350.60076097954556Q828.9453030660904 354.5690148944038 827.8430103119631 356.7074628374108Q826.7186717027533 358.8459107804177 824.3377193538383 359.63956156338935L824.3377193538383 359.63956156338935Q814.8139099581786 362.9684856808538 803.3941570254199 363.4534944926698L803.3941570254199 363.4534944926698Q800.2195538935332 376.6369158320321 791.401211860515 384.72774464732646Q782.6049156825792 392.8185734626208 771.9567676777095 392.8185734626208L771.9567676777095 392.8185734626208Q755.9294310326987 392.8185734626208 748.6322530003761 380.60516974689045Q741.3350749680534 368.36972017607746 741.3350749680534 345.1995264843219L741.3350749680534 345.1995264843219Q741.3350749680534 324.7189271126368 746.405621637039 300.66689921757927Q751.4982141611071 276.63691717760435 761.2424821075923 259.72774632929173Q771.0087959091601 242.81857548097906 784.5008592196781 242.81857548097906L784.5008592196781 242.81857548097906Q791.7980372520008 242.81857548097906 796.2512999786751 249.07959832442208Q800.7045627053493 255.36266702294765 800.7045627053493 265.3494393753409L800.7045627053493 265.3494393753409Q800.7045627053493 278.37853972912546 795.766291166859 291.2312732422497Q790.8500654834513 304.0840067553739 779.4303125506926 318.21539986328577L779.4303125506926 318.21539986328577Q790.0564147004796 319.00905064625744 796.7363087904911 327.0337418963041Q803.3941570254199 335.0363872912682 804.6728166202075 346.7868280502651L804.6728166202075 346.7868280502651Q812.124315638108 346.3018192384491 822.4417758167394 343.61222491837856L822.4417758167394 343.61222491837856Q823.3897475852889 343.3035829472229 824.6684071800767 343.3035829472229L824.6684071800767 343.3035829472229ZM780.8632931310581 258.53727015483423Q777.6886899991714 258.53727015483423 773.9408946351386 267.97289613016386Q770.2151451261884 277.430567960576 767.0405419943019 293.61222559116464Q763.8659388624152 309.7938832217532 762.278637296472 329.0178688537332L762.278637296472 329.0178688537332Q772.7504184606812 309.7938832217532 779.0334871592067 295.11134373677777Q785.2945100026498 280.42880425180226 785.2945100026498 269.0090513190435L785.2945100026498 269.0090513190435Q785.2945100026498 263.93850465005795 784.1040338281923 261.2268644749048Q782.9135576537349 258.53727015483423 780.8632931310581 258.53727015483423L780.8632931310581 258.53727015483423ZM772.5960974751033 375.99758603463835Q777.5123231585111 375.99758603463835 781.3262560877915 371.8750111342022Q785.140189017072 367.7303903786837 786.4188486118596 359.97024938962755L786.4188486118596 359.97024938962755Q781.4805770733694 356.6192794170806 778.879166173629 351.24009077693944Q776.255709418806 345.83885628171566 776.255709418806 339.7982919890981L776.255709418806 339.7982919890981Q776.255709418806 337.571660625761 776.8950392161998 333.7797735515631L776.8950392161998 333.7797735515631L776.4100304043839 333.7797735515631Q769.9065031550329 333.7797735515631 765.5414238486887 340.1951173805839Q761.1763445423446 346.63250706468733 761.1763445423446 357.41293020005224L761.1763445423446 357.41293020005224Q761.1763445423446 366.47377663897856 764.5934520801393 371.23568133680845Q767.9885137628513 375.99758603463835 772.5960974751033 375.99758603463835L772.5960974751033 375.99758603463835ZM834.8315463731302 392.8185734626208Q824.9770491512322 392.8185734626208 819.112851699275 385.6757164158759Q813.2266083922352 378.53285936913113 813.2266083922352 366.936739595712L813.2266083922352 366.936739595712Q813.2266083922352 354.2383270681656 819.112851699275 342.9067575557371Q824.9770491512322 331.553142188226 834.7433629528 324.6527895473891Q844.5096767543678 317.7303910514698 855.466466730393 317.7303910514698L855.466466730393 317.7303910514698Q858.9497118334352 317.7303910514698 860.1401880078928 319.09723406658765Q861.3306641823502 320.4420312266229 862.1243149653219 323.9252763296651L862.1243149653219 323.9252763296651Q865.4532390827862 323.28594653227134 869.1128510264889 323.28594653227134L869.1128510264889 323.28594653227134Q876.8950378706276 323.28594653227134 876.8950378706276 328.8415020130729L876.8950378706276 328.8415020130729Q876.8950378706276 332.19247198561976 874.5140855217127 344.7145176725058L874.5140855217127 344.7145176725058Q870.85447357801 362.9684856808538 870.85447357801 370.1113427275986L870.85447357801 370.1113427275986Q870.85447357801 372.4922950765136 872.0449497524676 373.925275656879Q873.235425926925 375.35825623724446 875.1313694640239 375.35825623724446L875.1313694640239 375.35825623724446Q878.1516516103327 375.35825623724446 882.4505933514291 371.47818574271645Q886.727489237443 367.5760693931058 894.0246672697657 358.8459107804177L894.0246672697657 358.8459107804177Q895.9426566619472 356.6192794170806 898.3236090108621 356.6192794170806L898.3236090108621 356.6192794170806Q900.3738735335389 356.6192794170806 901.5643497079964 358.537268809262Q902.7548258824538 360.433212346361 902.7548258824538 363.76213646382536L902.7548258824538 363.76213646382536Q902.7548258824538 370.1113427275986 899.734543736145 373.61663368572334L899.734543736145 373.61663368572334Q893.231016486794 381.7074625010177 885.9338384544715 387.26301798181925Q878.6366604221487 392.8185734626208 871.8024453465596 392.8185734626208L871.8024453465596 392.8185734626208Q866.5775776919961 392.8185734626208 862.212498385652 389.24714493924836Q857.847419079308 385.6757164158759 855.6207877159709 379.4808311376806L855.6207877159709 379.4808311376806Q847.3535920600162 392.8185734626208 834.8315463731302 392.8185734626208L834.8315463731302 392.8185734626208ZM840.5414228395096 376.79123681761Q844.0246679425518 376.79123681761 847.1992710744383 372.6686619171739Q850.3738742063249 368.52404116165536 851.8068547866905 361.7118719411487L851.8068547866905 361.7118719411487L857.6710522386477 332.50111395677544Q851.0132040037188 332.6554349423532 845.3694651025871 337.5055230605133Q839.747772056538 342.3335653235909 836.4188479390734 350.27007315330735Q833.0678779665266 358.2065809830239 833.0678779665266 367.11310643637233L833.0678779665266 367.11310643637233Q833.0678779665266 372.0293321197801 835.0520049239556 374.410284468695Q837.0361318813848 376.79123681761 840.5414228395096 376.79123681761L840.5414228395096 376.79123681761Z " fill="#0be0ed" transform="matrix(0.9695207697022865,0,0,0.9695207697022867,-0.23954681112943543,-8.131701384291858)"/></g></svg>